<svg width="20" height="20" viewBox="0 0 20 20" fill="none" xmlns="http://www.w3.org/2000/svg">
<path d="M19 11.9951C18.7348 11.9951 18.4804 12.1005 18.2929 12.288C18.1054 12.4755 18 12.7299 18 12.9951V16.9951C18 17.2603 17.8946 17.5147 17.7071 17.7022C17.5196 17.8898 17.2652 17.9951 17 17.9951H3C2.73478 17.9951 2.48043 17.8898 2.29289 17.7022C2.10536 17.5147 2 17.2603 2 16.9951V12.9951C2 12.7299 1.89464 12.4755 1.70711 12.288C1.51957 12.1005 1.26522 11.9951 1 11.9951C0.734784 11.9951 0.48043 12.1005 0.292893 12.288C0.105357 12.4755 0 12.7299 0 12.9951V16.9951C0 17.7908 0.316071 18.5538 0.87868 19.1164C1.44129 19.679 2.20435 19.9951 3 19.9951H17C17.7956 19.9951 18.5587 19.679 19.1213 19.1164C19.6839 18.5538 20 17.7908 20 16.9951V12.9951C20 12.7299 19.8946 12.4755 19.7071 12.288C19.5196 12.1005 19.2652 11.9951 19 11.9951Z" fill="white"/>
<path d="M9 10.5901L6.71 8.2901C6.61676 8.19687 6.50607 8.1229 6.38425 8.07244C6.26243 8.02198 6.13186 7.99601 6 7.99601C5.86814 7.99601 5.73758 8.02198 5.61575 8.07244C5.49393 8.1229 5.38324 8.19687 5.29 8.2901C5.19676 8.38334 5.1228 8.49403 5.07234 8.61585C5.02188 8.73768 4.99591 8.86824 4.99591 9.0001C4.99591 9.13196 5.02188 9.26253 5.07234 9.38435C5.1228 9.50617 5.19676 9.61687 5.29 9.7101L9.29 13.7101C9.38511 13.8011 9.49725 13.8725 9.62 13.9201C9.86346 14.0201 10.1365 14.0201 10.38 13.9201C10.5028 13.8725 10.6149 13.8011 10.71 13.7101L14.71 9.7101C14.8037 9.61714 14.8781 9.50654 14.9289 9.38468C14.9797 9.26282 15.0058 9.13212 15.0058 9.0001C15.0058 8.86809 14.9797 8.73739 14.9289 8.61553C14.8781 8.49367 14.8037 8.38307 14.71 8.2901C14.617 8.19637 14.5064 8.12198 14.3846 8.07121C14.2627 8.02044 14.132 7.99431 14 7.99431C13.868 7.99431 13.7373 8.02044 13.6154 8.07121C13.4936 8.12198 13.383 8.19637 13.29 8.2901L11 10.5901V1.0001C11 0.734887 10.8946 0.480534 10.7071 0.292997C10.5196 0.105461 10.2652 0.000103951 10 0.000103951C9.73479 0.000103951 9.48043 0.105461 9.2929 0.292997C9.10536 0.480534 9 0.734887 9 1.0001V10.5901Z" fill="white"/>
</svg>
